<?xml version="1.0" standalone="no"?><!DOCTYPE svg PUBLIC "-//W3C//DTD SVG 1.1//EN" "http://www.w3.org/Graphics/SVG/1.1/DTD/svg11.dtd"><svg t="1693620571351" class="icon" viewBox="0 0 1024 1024" version="1.1" xmlns="http://www.w3.org/2000/svg" p-id="3103" xmlns:xlink="http://www.w3.org/1999/xlink" width="200" height="200"><path d="M169.9 746.1c-1.4 0-1.4-14.9 0-14.9l565.7-2.6c1.4 0 2.6 3.3 2.6 7.4 0 4.1-1.2 7.5-2.6 7.5l-565.7 2.6z" p-id="3104"></path><path d="M184.3 740.4c0 1.4-14.9 1.3-14.9-0.1l0.8-565.8c0-1.4 3.3-2.6 7.5-2.5 4.1 0 7.4 1.2 7.4 2.6l-0.8 565.8z" p-id="3105"></path><path d="M709.4 736.2l-32.2-151.7 1.8-3.4 86.1 98c30 18.8 60 37.7 90 56.5-30 19.1-60 38.2-89.9 57.4l-86 98.8-1.8-2.6 32-153z" p-id="3106"></path></svg>