<?xml version="1.0" standalone="no"?><!DOCTYPE svg PUBLIC "-//W3C//DTD SVG 1.1//EN" "http://www.w3.org/Graphics/SVG/1.1/DTD/svg11.dtd"><svg t="1699500198305" class="icon" viewBox="0 0 1024 1024" version="1.1" xmlns="http://www.w3.org/2000/svg" p-id="9458" xmlns:xlink="http://www.w3.org/1999/xlink" width="200" height="200"><path d="M96 96h32v832H96z" fill="#515151" p-id="9459"></path><path d="M224 192h384a32 32 0 0 1 32 32v192a32 32 0 0 1-32 32H224a32 32 0 0 1-32-32V224a32 32 0 0 1 32-32z m0 384h672a32 32 0 0 1 32 32v192a32 32 0 0 1-32 32H224a32 32 0 0 1-32-32v-192a32 32 0 0 1 32-32z m0 32v192h672v-192H224z" fill="#515151" p-id="9460"></path><path d="M208 592m32 0l640 0q32 0 32 32l0 160q0 32-32 32l-640 0q-32 0-32-32l0-160q0-32 32-32Z" fill="#515151" p-id="9461"></path></svg>