<?xml version="1.0" standalone="no"?><!DOCTYPE svg PUBLIC "-//W3C//DTD SVG 1.1//EN" "http://www.w3.org/Graphics/SVG/1.1/DTD/svg11.dtd"><svg t="1693621149760" class="icon" viewBox="0 0 1024 1024" version="1.1" xmlns="http://www.w3.org/2000/svg" p-id="17349" xmlns:xlink="http://www.w3.org/1999/xlink" width="200" height="200"><path d="M132.002909 103.005091a28.997818 28.997818 0 0 0-28.997818 28.997818v332.474182a218.996364 218.996364 0 0 0 218.996364 219.042909l499.991272-0.046545-187.997091 188.043636a28.997818 28.997818 0 0 0-3.351272 36.957091l3.351272 4.049454a28.997818 28.997818 0 0 0 41.006546 0l237.521454-237.521454a29.556364 29.556364 0 0 0 7.726546-13.963637 28.904727 28.904727 0 0 0 0.744727-6.516363l-0.186182 3.118545a29.137455 29.137455 0 0 0 0.139637-1.675636l0.046545-1.442909a29.463273 29.463273 0 0 0-4.933818-16.197818 28.951273 28.951273 0 0 0-3.537455-4.328728l2.932364 3.444364a29.137455 29.137455 0 0 0-2.606545-3.072l-0.325819-0.372364-237.521454-237.521454a28.997818 28.997818 0 1 0-41.006546 41.053091l188.043637 187.950545H321.954909a161.047273 161.047273 0 0 1-160.768-152.157091l-0.232727-8.843636V132.002909a28.997818 28.997818 0 0 0-28.997818-28.997818z" fill="#333333" p-id="17350"></path></svg>