<?xml version="1.0" standalone="no"?><!DOCTYPE svg PUBLIC "-//W3C//DTD SVG 1.1//EN" "http://www.w3.org/Graphics/SVG/1.1/DTD/svg11.dtd"><svg t="1693557422051" class="icon" viewBox="0 0 3247 1024" version="1.1" xmlns="http://www.w3.org/2000/svg" p-id="1138" id="mx_n_1693557422052" xmlns:xlink="http://www.w3.org/1999/xlink" width="634.1796875" height="200"><path d="M512-290.28451174h3695.37108527c442.47206418 0 802.28451174 359.81244755 802.28451171 802.28451174S4649.84314944 1314.28451174 4207.37108527 1314.28451174h-3695.37108527C69.52793582 1314.28451174-290.28451174 954.47206418-290.28451174 512S69.52793582-290.28451174 512-290.28451174z" fill="#FEFEFE" p-id="1139"></path><path d="M4207.37108527 1362.90781572h-3695.37108527C45.21628467 1362.90781572-338.90781572 983.64604693-338.90781572 512S45.21628467-338.90781572 512-338.90781572h3695.37108527c466.78371533 0 850.90781572 384.12410037 850.90781574 850.90781572S4679.01713215 1362.90781572 4207.37108527 1362.90781572z m-3695.37108527-1604.56902347C98.70191855-241.66120775-241.66120775 98.70191855-241.66120775 512S98.70191855 1265.66120775 512 1265.66120775h3695.37108527c413.29808145 0 753.66120775-340.36312631 753.6612077-753.66120775S4625.53149828-241.66120775 4207.37108527-241.66120775h-3695.37108527z" p-id="1140"></path></svg>