<?xml version="1.0" standalone="no"?><!DOCTYPE svg PUBLIC "-//W3C//DTD SVG 1.1//EN" "http://www.w3.org/Graphics/SVG/1.1/DTD/svg11.dtd"><svg t="1693557253558" class="icon" viewBox="0 0 3247 1024" version="1.1" xmlns="http://www.w3.org/2000/svg" p-id="43079" xmlns:xlink="http://www.w3.org/1999/xlink" width="634.1796875" height="200"><path d="M512 29.257143h2223.542857c266.24 0 482.742857 216.502857 482.742857 482.742857S3001.782857 994.742857 2735.542857 994.742857h-2223.542857C245.76 994.742857 29.257143 778.24 29.257143 512S245.76 29.257143 512 29.257143z" fill="#FEFEFE" p-id="43080"></path><path d="M2735.542857 1024h-2223.542857C231.131429 1024 0 795.794286 0 512S231.131429 0 512 0h2223.542857c280.868571 0 512 231.131429 512 512S3019.337143 1024 2735.542857 1024z m-2223.542857-965.485714C263.314286 58.514286 58.514286 263.314286 58.514286 512S263.314286 965.485714 512 965.485714h2223.542857c248.685714 0 453.485714-204.8 453.485714-453.485714S2987.154286 58.514286 2735.542857 58.514286h-2223.542857z" p-id="43081"></path></svg>