<?xml version="1.0" standalone="no"?><!DOCTYPE svg PUBLIC "-//W3C//DTD SVG 1.1//EN" "http://www.w3.org/Graphics/SVG/1.1/DTD/svg11.dtd"><svg t="1694139734084" class="icon" viewBox="0 0 1024 1024" version="1.1" xmlns="http://www.w3.org/2000/svg" p-id="5303" xmlns:xlink="http://www.w3.org/1999/xlink" width="200" height="200"><path d="M725.333333 170.666667a128 128 0 0 1 128 128v426.666666a128 128 0 0 1-128 128H298.666667a128 128 0 0 1-128-128V298.666667a128 128 0 0 1 128-128h426.666666z m0 64H298.666667a64 64 0 0 0-63.701334 57.856L234.666667 298.666667v426.666666a64 64 0 0 0 57.856 63.701334L298.666667 789.333333h426.666666a64 64 0 0 0 63.701334-57.856L789.333333 725.333333V298.666667a64 64 0 0 0-57.856-63.701334L725.333333 234.666667z" fill="#000000" p-id="5304"></path><path d="M554.666667 384a85.333333 85.333333 0 0 1 85.333333 85.333333v85.333334a85.333333 85.333333 0 0 1-85.333333 85.333333h-85.333334a85.333333 85.333333 0 0 1-85.333333-85.333333v-85.333334a85.333333 85.333333 0 0 1 85.333333-85.333333h85.333334z m0 64h-85.333334a21.333333 21.333333 0 0 0-20.992 17.493333L448 469.333333v85.333334a21.333333 21.333333 0 0 0 17.493333 20.992l3.84 0.341333h85.333334a21.333333 21.333333 0 0 0 20.992-17.493333L576 554.666667v-85.333334a21.333333 21.333333 0 0 0-17.493333-20.992L554.666667 448z" fill="#000000" p-id="5305"></path><path d="M384 96m32 0l0 0q32 0 32 32l0 64q0 32-32 32l0 0q-32 0-32-32l0-64q0-32 32-32Z" fill="#000000" p-id="5306"></path><path d="M576 96m32 0l0 0q32 0 32 32l0 64q0 32-32 32l0 0q-32 0-32-32l0-64q0-32 32-32Z" fill="#000000" p-id="5307"></path><path d="M928 384m0 32l0 0q0 32-32 32l-64 0q-32 0-32-32l0 0q0-32 32-32l64 0q32 0 32 32Z" fill="#000000" p-id="5308"></path><path d="M928 576m0 32l0 0q0 32-32 32l-64 0q-32 0-32-32l0 0q0-32 32-32l64 0q32 0 32 32Z" fill="#000000" p-id="5309"></path><path d="M640 928m-32 0l0 0q-32 0-32-32l0-64q0-32 32-32l0 0q32 0 32 32l0 64q0 32-32 32Z" fill="#000000" p-id="5310"></path><path d="M448 928m-32 0l0 0q-32 0-32-32l0-64q0-32 32-32l0 0q32 0 32 32l0 64q0 32-32 32Z" fill="#000000" p-id="5311"></path><path d="M96 640m0-32l0 0q0-32 32-32l64 0q32 0 32 32l0 0q0 32-32 32l-64 0q-32 0-32-32Z" fill="#000000" p-id="5312"></path><path d="M96 448m0-32l0 0q0-32 32-32l64 0q32 0 32 32l0 0q0 32-32 32l-64 0q-32 0-32-32Z" fill="#000000" p-id="5313"></path></svg>