<?xml version="1.0" standalone="no"?><!DOCTYPE svg PUBLIC "-//W3C//DTD SVG 1.1//EN" "http://www.w3.org/Graphics/SVG/1.1/DTD/svg11.dtd"><svg t="1694520202365" class="icon" viewBox="0 0 1024 1024" version="1.1" xmlns="http://www.w3.org/2000/svg" p-id="24690" xmlns:xlink="http://www.w3.org/1999/xlink" width="200" height="200"><path d="M855.5 169.5h-184v-34a40 40 0 0 0-40-40h-240a40 40 0 0 0-40 40v132a40 40 0 0 0 40 40h240a40 40 0 0 0 40-40v-34h160v247h-160v-34a40 40 0 0 0-40-40h-240a40 40 0 0 0-40 40V480h-183a40 40 0 0 0-40 40v295a40 40 0 0 0 40 40h183v33.5a40 40 0 0 0 40 40h240a40 40 0 0 0 40-40v-132a40 40 0 0 0-40-40h-240a40 40 0 0 0-40 40V791h-159V544h159v34.5a40 40 0 0 0 40 40h240a40 40 0 0 0 40-40v-34h184a40 40 0 0 0 40-40v-295a40 40 0 0 0-40-40z" p-id="24691"></path></svg>