<?xml version="1.0" standalone="no"?><!DOCTYPE svg PUBLIC "-//W3C//DTD SVG 1.1//EN" "http://www.w3.org/Graphics/SVG/1.1/DTD/svg11.dtd"><svg t="1694518344374" class="icon" viewBox="0 0 1024 1024" version="1.1" xmlns="http://www.w3.org/2000/svg" p-id="4050" xmlns:xlink="http://www.w3.org/1999/xlink" width="200" height="200"><path d="M512 728c-94.4 0-168.4-52.8-168.4-120 0-13.2 10.8-24 24-24s24 10.8 24 24c0 39.2 55.2 72 120.4 72s120.4-32.8 120.4-72c0-44-51.2-60.4-129.2-80.4-70.8-18-151.6-38.8-151.6-111.6 0-68.4 68.8-120 160.4-120 66 0 122.4 27.2 146.8 71.2 6.4 11.6 2.4 26-9.2 32.8-11.6 6.4-26 2.4-32.8-9.2C601.2 362.4 560 344 512 344c-63.2 0-112.4 31.6-112.4 72 0 33.2 45.6 47.2 115.2 64.8 73.6 18.8 165.6 42.4 165.6 127.2 0 67.2-74 120-168.4 120z" p-id="4051"></path><path d="M832 888H192c-30.8 0-56-25.2-56-56V192c0-30.8 25.2-56 56-56h640c30.8 0 56 25.2 56 56v640c0 30.8-25.2 56-56 56zM192 184c-4.4 0-8 3.6-8 8v640c0 4.4 3.6 8 8 8h640c4.4 0 8-3.6 8-8V192c0-4.4-3.6-8-8-8H192z" p-id="4052"></path></svg>