<?xml version="1.0" standalone="no"?><!DOCTYPE svg PUBLIC "-//W3C//DTD SVG 1.1//EN" "http://www.w3.org/Graphics/SVG/1.1/DTD/svg11.dtd"><svg t="1693534465812" class="icon" viewBox="0 0 1024 1024" version="1.1" xmlns="http://www.w3.org/2000/svg" p-id="8370" xmlns:xlink="http://www.w3.org/1999/xlink" width="200" height="200"><path d="M1014.10749 90.896948l-248.499748-89.999909a14.985985 14.985985 0 0 0-10.213989 0L512 89.04695 268.608247 0.897039a14.985985 14.985985 0 0 0-10.213989 0l-248.499748 89.999909A14.999985 14.999985 0 0 0 0.00052 105.000933v903.999082a15.001985 15.001985 0 0 0 20.10598 14.103986l243.391752-88.149911 243.391753 88.149911a14.985985 14.985985 0 0 0 10.21399 0l243.391753-88.149911 243.391752 88.149911a15.021985 15.021985 0 0 0 13.721986-1.821998 14.997985 14.997985 0 0 0 6.385994-12.281988v-903.999082a14.993985 14.993985 0 0 0-9.88799-14.103985zM993.99951 535.614496l-29.999969-10.865989V147.084891a15.001985 15.001985 0 0 0-9.89199-14.103986L775.499732 68.294971V36.387003L993.99951 115.522923v420.091573z m-903.999081 10.17599l173.499823-62.835937L497.000015 567.520464V923.800102l-218.499778-79.13392V527.000505c0-8.285992-6.713993-14.999985-14.999985-14.999985s-14.999985 6.713993-14.999984 14.999985v317.665677L90.000429 902.068124V545.790486zM526.999985 179.334858L745.499763 100.200938v356.279638L526.999985 535.614496V179.334858z m-29.99997 356.279638L278.500237 456.480576V100.200938L497.000015 179.334858v356.279638z m29.99997 31.905968l218.499778-79.13392v356.279638L526.999985 923.800102V567.520464zM745.499763 68.294971L526.999985 147.42889V115.520923l218.499778-79.13392v31.907968zM497.000015 147.42889L278.500237 68.294971V36.387003L497.000015 115.520923v31.907967zM248.500268 456.480576L90.000429 513.884518V157.60688L248.500268 100.200938v356.279638z m29.999969 420.091574l218.499778 79.133919v31.907968L278.500237 908.480117v-31.907967z m248.499748 79.133919l218.499778-79.133919v31.907967L526.999985 987.614037v-31.907968z m248.499747-467.319525L933.999571 545.790486v356.277638l-158.499839-57.403942V488.386544z m0-31.905968V100.200938L933.999571 157.60688v356.277638l-158.499839-57.403942zM248.500268 36.387003v31.907968L69.892449 132.980905A15.001985 15.001985 0 0 0 60.000459 147.084891v377.665616l-29.999969 10.865989V115.522923l218.499778-79.13592zM30.00049 567.520464l29.999969-10.865989v366.799627a15.001985 15.001985 0 0 0 20.10598 14.103986l168.391829-60.987938v31.907967L30.00049 987.614037V567.520464z m745.499242 340.959653v-31.907967l168.391829 60.987938a14.993985 14.993985 0 0 0 20.10598-14.103986v-366.799627l29.999969 10.865989v420.091573L775.499732 908.480117z" p-id="8371"></path></svg>