<?xml version="1.0" standalone="no"?><!DOCTYPE svg PUBLIC "-//W3C//DTD SVG 1.1//EN" "http://www.w3.org/Graphics/SVG/1.1/DTD/svg11.dtd"><svg t="1693472351985" class="icon" viewBox="0 0 1024 1024" version="1.1" xmlns="http://www.w3.org/2000/svg" p-id="15229" xmlns:xlink="http://www.w3.org/1999/xlink" width="200" height="200"><path d="M832 1024H192c-106.048 0-192-86.016-192-192V192a192 192 0 0 1 192-192h640a192 192 0 0 1 192 192v640c0 105.984-85.952 192-192 192z m64-832a64 64 0 0 0-64-64H192a64 64 0 0 0-64 64v640c0 35.392 28.608 64 64 64h640c35.392 0 64-28.608 64-64V192z m-384 192v-64h256v64H512z m-256 192h192v192h-192v-192z m64 128h64v-64h-64v64z m-64-448h192v192h-192v-192z m64 128h64v-64h-64v64z m448 320H512v-64h256v64z" p-id="15230"></path></svg>