<?xml version="1.0" standalone="no"?><!DOCTYPE svg PUBLIC "-//W3C//DTD SVG 1.1//EN" "http://www.w3.org/Graphics/SVG/1.1/DTD/svg11.dtd"><svg t="1686272951439" class="icon" viewBox="0 0 1024 1024" version="1.1" xmlns="http://www.w3.org/2000/svg" p-id="1445" xmlns:xlink="http://www.w3.org/1999/xlink" width="200" height="200"><path d="M613.76 888.96h-195.2a8 8 0 0 1-8-8V502.4H212.32a8.32 8.32 0 0 1-7.36-4.8 7.84 7.84 0 0 1 1.28-8.48l304-352a8.16 8.16 0 0 1 12 0l304 352a7.84 7.84 0 0 1 1.28 8.48 8.16 8.16 0 0 1-7.36 4.8h-198.4v378.56a8.16 8.16 0 0 1-8 8z m-187.2-16h179.2V494.4a8 8 0 0 1 8-8h188.64L516.16 155.36 229.76 486.4h188.8a8 8 0 0 1 8 8z" fill="#3F4869" p-id="1446"></path></svg>